# Blender v2.92.0 OBJ File: 'sord.blend'
# www.blender.org
mtllib sword.mtl
o Cube
v 0.712881 -0.167546 -0.308829
v 0.455529 0.167546 -0.253465
v 0.712881 -0.167546 0.308829
v 0.455529 0.167546 0.253465
v -0.712881 -0.167546 -0.308829
v -0.455529 0.167546 -0.253465
v -0.712881 -0.167546 0.308829
v -0.455529 0.167546 0.253465
v 1.000000 0.167546 -0.288185
v 0.724244 0.167546 -0.563942
v -1.000000 0.167546 0.288185
v -0.724244 0.167546 0.563942
v 0.724244 0.167546 0.563942
v 1.000000 0.167546 0.288185
v -0.724244 0.167546 -0.563942
v -1.000000 0.167546 -0.288185
v 0.216445 0.505884 0.173213
v 0.216445 0.505884 -0.173213
v -0.216445 0.505884 0.173213
v -0.216445 0.505884 -0.173213
v 0.724244 -0.167546 -0.563942
v 1.000000 -0.167546 -0.288185
v -0.724244 -0.167546 0.563942
v -1.000000 -0.167546 0.288185
v 1.000000 -0.167546 0.288185
v 0.724244 -0.167546 0.563942
v -1.000000 -0.167546 -0.288185
v -0.724244 -0.167546 -0.563942
v 0.455529 0.347052 0.253465
v 0.455529 0.347052 -0.253465
v -0.455529 0.347052 0.253465
v -0.455529 0.347052 -0.253465
v 0.000000 3.991250 0.173213
v 0.000000 3.991250 -0.173213
v -0.412456 3.723428 -0.173213
v -0.412456 3.723428 0.173213
v 0.412456 3.723428 0.173213
v 0.412456 3.723428 -0.173213
v -0.558426 3.203709 0.173213
v 0.558426 3.203709 0.173213
v 0.558426 3.203709 -0.173213
v -0.558426 3.203709 -0.173213
v -0.216445 0.992630 0.173213
v 0.216445 0.992630 0.173213
v 0.216445 0.992630 -0.173213
v -0.216445 0.992630 -0.173213
v 0.375278 0.347052 0.173213
v -0.375278 0.347052 0.173213
v 0.375278 0.347052 -0.173213
v -0.375278 0.347052 -0.173213
v 0.000000 4.570798 0.000000
v -0.566265 3.763196 0.000000
v -0.375278 0.980419 0.000000
v 0.375278 0.980419 0.000000
v -0.720659 3.213484 0.000000
v 0.566265 3.763196 0.000000
v 0.720659 3.213484 0.000000
v -0.709985 -0.306846 -0.308829
v 0.709985 -0.306846 -0.308829
v -0.709985 -0.306846 0.308829
v 0.709985 -0.306846 0.308829
v -0.373684 -0.306846 0.225071
v -0.454561 -0.306846 0.150421
v -0.454561 -0.306846 -0.150420
v -0.373684 -0.306846 -0.225071
v 0.374312 -0.306846 -0.225071
v 0.454561 -0.306846 -0.150510
v 0.454561 -0.306846 0.150426
v 0.373683 -0.306846 0.225071
v -0.369530 -2.720180 -0.225071
v -0.458533 -2.720180 -0.150033
v 0.458533 -2.720180 -0.150071
v 0.368950 -2.720180 -0.225071
v -0.458533 -2.720180 0.150043
v -0.369515 -2.720180 0.225071
v 0.369319 -2.720180 0.225071
v 0.458533 -2.720180 0.150106
v 0.454561 -2.286537 -0.151106
v 0.376348 -2.286537 -0.225071
v 0.518408 -2.309983 -0.250357
v 0.371169 -2.286537 0.225071
v 0.454561 -2.286537 0.150410
v -0.454561 -2.286537 0.150366
v -0.371179 -2.286537 0.225071
v -0.371179 -2.286537 -0.225071
v -0.454561 -2.286537 -0.150359
v -0.595048 -2.666465 -0.206603
v -0.508339 -2.666465 -0.281532
v 0.598105 -2.666465 -0.206635
v 0.510892 -2.666465 -0.281532
v -0.508331 -2.666465 0.281362
v -0.595048 -2.666465 0.206442
v 0.511282 -2.666465 0.281362
v 0.598105 -2.666465 0.206500
v 0.510474 -2.338888 -0.281532
v 0.597123 -2.338888 -0.206724
v 0.533276 -2.315442 -0.256246
v 0.597123 -2.338888 0.206592
v 0.510887 -2.338888 0.281362
v -0.507923 -2.338888 0.281362
v -0.594055 -2.338888 0.206539
v -0.507931 -2.338888 -0.281532
v -0.594055 -2.338888 -0.206701
v 0.186827 -1.791614 0.159881
v 0.267946 -1.791614 0.085401
v 0.157339 -1.296691 0.168583
v 0.237473 -1.296691 0.094074
v 0.232989 -0.801769 0.064245
v 0.152070 -0.801769 0.139023
v -0.267946 -1.791614 0.085376
v -0.186832 -1.791614 0.159881
v -0.237473 -1.296691 0.094062
v -0.157342 -1.296691 0.168583
v -0.152072 -0.801769 0.139023
v -0.232989 -0.801769 0.064239
v -0.186833 -1.791614 -0.159881
v -0.267946 -1.791614 -0.085372
v -0.157342 -1.296691 -0.168583
v -0.237473 -1.296691 -0.094061
v -0.232989 -0.801769 -0.064238
v -0.152072 -0.801769 -0.139023
v 0.152825 -0.801769 -0.139023
v 0.232989 -0.801769 -0.064343
v 0.237473 -1.296692 -0.094256
v 0.158694 -1.296692 -0.168583
v 0.267945 -1.791614 -0.085803
v 0.189721 -1.791614 -0.159881
v 0.292956 -0.733770 -0.093844
v 0.212597 -0.733770 -0.168462
v 0.196928 -0.870340 -0.169879
v 0.276367 -0.870340 -0.095321
v 0.211943 -0.733770 0.168462
v 0.292956 -0.733770 0.093757
v 0.276367 -0.870340 0.095204
v 0.196038 -0.870339 0.169879
v 0.198963 -1.373477 -0.190230
v 0.277299 -1.373477 -0.116031
v 0.277299 -1.219906 -0.115812
v 0.198260 -1.219906 -0.190230
v 0.277299 -1.373477 0.115795
v 0.197201 -1.373477 0.190230
v 0.197206 -1.219906 0.190230
v 0.277299 -1.219906 0.115670
v 0.231573 -1.863534 -0.178176
v 0.309848 -1.863534 -0.104171
v 0.289626 -1.719754 -0.103910
v 0.211507 -1.719754 -0.178029
v 0.309848 -1.863534 0.103641
v 0.227600 -1.863534 0.178176
v 0.209291 -1.719754 0.178029
v 0.289626 -1.719754 0.103606
v -0.292956 -0.733770 0.093751
v -0.211944 -0.733770 0.168462
v -0.196040 -0.870339 0.169879
v -0.276367 -0.870339 0.095196
v -0.197204 -1.373477 0.190230
v -0.277299 -1.373477 0.115781
v -0.277299 -1.219906 0.115661
v -0.197208 -1.219906 0.190230
v -0.227607 -1.863534 0.178176
v -0.309848 -1.863534 0.103608
v -0.289626 -1.719754 0.103587
v -0.209295 -1.719754 0.178029
v -0.211944 -0.733770 -0.168462
v -0.292956 -0.733770 -0.093750
v -0.276367 -0.870339 -0.095195
v -0.196040 -0.870339 -0.169879
v -0.277299 -1.373477 -0.115778
v -0.197204 -1.373477 -0.190230
v -0.197208 -1.219906 -0.190230
v -0.277299 -1.219906 -0.115659
v -0.309848 -1.863534 -0.103602
v -0.227608 -1.863534 -0.178176
v -0.209295 -1.719754 -0.178029
v -0.289626 -1.719754 -0.103583
vt 0.331341 0.710659
vt 0.168659 0.710659
vt 0.168659 0.710659
vt 0.331341 0.710659
vt 0.375000 0.061123
vt 0.625000 0.061123
vt 0.625000 0.188877
vt 0.375000 0.188877
vt 0.375000 0.784470
vt 0.625000 0.784470
vt 0.625000 0.965530
vt 0.375000 0.965530
vt 0.854276 0.576344
vt 0.854276 0.673655
vt 0.854276 0.673655
vt 0.854276 0.576344
vt 0.375000 0.561123
vt 0.625000 0.561123
vt 0.625000 0.688877
vt 0.375000 0.688877
vt 0.375000 0.465530
vt 0.625000 0.465530
vt 0.375000 0.000000
vt 0.625000 0.000000
vt 0.625000 0.284470
vt 0.375000 0.284470
vt 0.331341 0.539341
vt 0.340530 0.500000
vt 0.159470 0.750000
vt 0.125000 0.688877
vt 0.352814 0.672582
vt 0.340530 0.750000
vt 0.147186 0.577418
vt 0.125000 0.561123
vt 0.159470 0.500000
vt 0.168659 0.539341
vt 0.352814 0.577418
vt 0.147186 0.672582
vt 0.147186 0.577418
vt 0.147186 0.672582
vt 0.352814 0.672582
vt 0.352814 0.577418
vt 0.331341 0.539341
vt 0.168659 0.539341
vt 0.645724 0.576344
vt 0.659469 0.500000
vt 0.875000 0.688877
vt 0.840531 0.750000
vt 0.668054 0.713251
vt 0.659469 0.750000
vt 0.831946 0.536749
vt 0.840531 0.500000
vt 0.875000 0.561123
vt 0.668054 0.536749
vt 0.645724 0.673656
vt 0.831946 0.713251
vt 0.696724 0.562054
vt 0.818498 0.587946
vt 0.825235 0.589379
vt 0.690104 0.560647
vt 0.645724 0.576344
vt 0.645724 0.673656
vt 0.831946 0.536749
vt 0.668054 0.536749
vt 0.668054 0.713251
vt 0.831946 0.713251
vt 0.318519 0.686212
vt 0.333193 0.595157
vt 0.181481 0.563788
vt 0.166807 0.654843
vt 0.297193 0.681802
vt 0.188132 0.659252
vt 0.289678 0.680248
vt 0.202807 0.568198
vt 0.311868 0.590748
vt 0.210322 0.569752
vt 0.198516 0.567310
vt 0.316158 0.591635
vt 0.301484 0.682690
vt 0.183842 0.658365
vt 0.286370 0.679565
vt 0.198955 0.661490
vt 0.213587 0.570426
vt 0.301045 0.588510
vt 0.213587 0.570427
vt 0.301088 0.588519
vt 0.333193 0.595157
vt 0.286413 0.679574
vt 0.198912 0.661481
vt 0.166807 0.654843
vt 0.181481 0.563788
vt 0.181481 0.563788
vt 0.318519 0.686212
vt 0.181481 0.563788
vt 0.195648 0.660806
vt 0.166807 0.654843
vt 0.166807 0.654843
vt 0.318519 0.686212
vt 0.318519 0.686212
vt 0.304352 0.589194
vt 0.333193 0.595157
vt 0.333193 0.595157
vt 0.166807 0.654843
vt 0.318519 0.686212
vt 0.333193 0.595157
vt 0.181481 0.563788
vt 0.662391 0.640871
vt 0.673270 0.574167
vt 0.672362 0.579738
vt 0.663300 0.635293
vt 0.837609 0.609130
vt 0.826733 0.675813
vt 0.827643 0.670235
vt 0.836699 0.614709
vt 0.655922 0.661800
vt 0.674313 0.660525
vt 0.809414 0.689251
vt 0.824358 0.589192
vt 0.692019 0.561054
vt 0.687978 0.560195
vt 0.828365 0.590044
vt 0.826747 0.675729
vt 0.837595 0.609216
vt 0.838142 0.605865
vt 0.826200 0.679080
vt 0.663096 0.636547
vt 0.672586 0.578361
vt 0.673292 0.574035
vt 0.662391 0.640867
vt 0.675680 0.660815
vt 0.808082 0.688968
vt 0.812090 0.689820
vt 0.671651 0.659959
vt 0.802224 0.687722
vt 0.681504 0.662054
vt 0.674767 0.660621
vt 0.808961 0.689155
vt 0.698129 0.562353
vt 0.817517 0.587738
vt 0.815433 0.587295
vt 0.699955 0.562741
vt 0.836905 0.613445
vt 0.827437 0.671499
vt 0.827826 0.669112
vt 0.836516 0.615833
vt 0.796307 0.686464
vt 0.687420 0.663312
vt 0.683427 0.662463
vt 0.800300 0.687313
vt 0.801243 0.687513
vt 0.682485 0.662262
vt 0.684569 0.662706
vt 0.799159 0.687070
vt 0.812151 0.689833
vt 0.671590 0.659946
vt 0.663483 0.634176
vt 0.672196 0.580755
vt 0.661854 0.644163
vt 0.673803 0.570900
vt 0.673800 0.570916
vt 0.661856 0.644147
vt 0.838144 0.605848
vt 0.826197 0.679097
vt 0.836902 0.613464
vt 0.827440 0.671481
vt 0.826735 0.675801
vt 0.837607 0.609144
vt 0.673254 0.574265
vt 0.662402 0.640800
vt 0.795496 0.686291
vt 0.688231 0.663484
vt 0.683576 0.662494
vt 0.800151 0.687281
vt 0.800301 0.687313
vt 0.683426 0.662462
vt 0.671595 0.584439
vt 0.664069 0.630583
vt 0.672395 0.579536
vt 0.663269 0.635487
vt 0.663288 0.635367
vt 0.672378 0.579636
vt 0.672792 0.577099
vt 0.662876 0.637896
vt 0.835931 0.619420
vt 0.828411 0.665524
vt 0.827611 0.670428
vt 0.836731 0.614516
vt 0.837118 0.612140
vt 0.827224 0.672804
vt 0.827631 0.670307
vt 0.836711 0.614637
vt 0.704238 0.563652
vt 0.811770 0.586516
vt 0.816425 0.587505
vt 0.699585 0.562662
vt 0.698505 0.562433
vt 0.817585 0.587752
vt 0.703225 0.563436
vt 0.812581 0.586688
vt 0.816574 0.587537
vt 0.699179 0.562576
vt 0.844078 0.588200
vt 0.825688 0.589475
vt 0.690472 0.560725
vt 0.801311 0.687528
vt 0.682415 0.662248
vt 0.673830 0.552001
vt 0.662881 0.637863
vt 0.672783 0.577156
vt 0.816575 0.587537
vt 0.699387 0.562620
vt 0.663094 0.636561
vt 0.672578 0.578410
vt 0.675966 0.557640
vt 0.675966 0.557640
vt 0.826170 0.697999
vt 0.827219 0.672835
vt 0.837123 0.612109
vt 0.687920 0.560182
vt 0.828426 0.590057
vt 0.824793 0.692521
vt 0.840447 0.591732
vt 0.675208 0.557479
vt 0.659553 0.658268
vt 0.676068 0.557012
vt 0.675966 0.557640
vn 0.0000 0.0000 -1.0000
vn 1.0000 0.0000 0.0000
vn 0.9998 0.0208 0.0000
vn -1.0000 0.0000 0.0000
vn -0.7071 0.0000 0.7071
vn 0.7071 0.0000 -0.7071
vn -0.7071 0.0000 -0.7071
vn 0.7071 0.0000 0.7071
vn 0.0000 0.0000 1.0000
vn 0.0000 -1.0000 0.0000
vn 0.0000 1.0000 0.0000
vn 0.0000 -0.1102 0.9939
vn -0.9998 0.0208 0.0000
vn 0.4043 -0.3680 0.8373
vn 0.5276 -0.1298 -0.8395
vn -0.5276 -0.1298 -0.8395
vn -0.5276 -0.1298 0.8395
vn 0.7096 -0.1993 0.6758
vn 0.4043 -0.3680 -0.8373
vn -0.4043 -0.3680 -0.8373
vn -0.4043 -0.3680 0.8373
vn 0.7096 -0.1993 -0.6758
vn -0.7096 -0.1993 -0.6758
vn -0.7096 -0.1993 0.6758
vn 0.7284 0.1127 0.6758
vn 0.7284 0.1127 -0.6758
vn -0.7284 0.1127 -0.6758
vn -0.7284 0.1127 0.6758
vn 0.5276 -0.1298 0.8395
vn -0.9352 0.3540 -0.0000
vn 0.9352 0.3540 0.0000
vn 0.0000 0.7245 0.6893
vn 0.3662 0.9306 0.0000
vn -0.9462 -0.3237 0.0000
vn 0.0000 0.7235 -0.6904
vn 0.0000 -0.1102 -0.9939
vn 0.0000 0.2449 0.9696
vn 0.9574 0.2888 0.0000
vn 0.0000 -0.2713 -0.9625
vn 0.0000 0.2449 -0.9696
vn -0.8640 -0.5034 0.0000
vn -1.0000 -0.0030 -0.0000
vn 1.0000 -0.0030 -0.0000
vn 0.0000 -0.7323 -0.6810
vn 0.9462 -0.3237 0.0000
vn -0.3592 0.9333 0.0000
vn 0.0000 -0.4104 -0.9119
vn 0.8640 -0.5034 0.0000
vn 0.0000 0.2713 -0.9625
vn -0.7500 0.6614 -0.0000
vn -0.8451 -0.5346 0.0000
vn -0.8877 -0.4604 0.0000
vn 0.8451 -0.5346 0.0000
vn -0.0000 -0.2465 0.9691
vn 0.8877 0.4604 0.0000
vn -0.0000 -0.4104 0.9119
vn 0.0000 0.3973 0.9177
vn -0.0000 -0.2713 0.9625
vn 0.0000 0.3973 -0.9177
vn -0.8877 0.4604 -0.0000
vn -0.0000 -0.0581 0.9983
vn 0.0000 -0.2465 -0.9691
vn -0.9574 0.2888 -0.0000
vn 0.0000 -0.0581 -0.9983
vn 0.0000 0.2713 0.9625
vn -0.3447 -0.9387 0.0000
vn 0.3514 -0.9362 -0.0000
vn 0.0000 0.0352 -0.9994
vn 0.7500 0.6614 0.0000
vn 0.8877 -0.4604 0.0000
vn 0.0000 0.0352 0.9994
vn 1.0000 -0.0027 0.0000
vn -0.0000 0.1314 0.9913
vn -1.0000 -0.0027 -0.0000
vn -0.9994 -0.0356 0.0000
vn 0.9994 -0.0356 0.0000
vn -0.0000 -0.7333 0.6799
vn -0.1361 -0.9802 0.1440
vn -0.6431 -0.1779 0.7449
vn -0.2404 0.9283 0.2836
vn -0.5001 0.6755 -0.5418
vn 0.5001 0.6755 -0.5417
vn 0.5001 0.6755 0.5417
vn -0.5932 -0.5052 0.6269
vn -0.2409 0.9283 -0.2831
vn 0.2414 -0.9310 -0.2737
vn -0.2382 -0.9328 -0.2704
vn -0.6525 -0.0013 0.7578
vn -0.6540 -0.0013 -0.7565
vn 0.6548 -0.0013 -0.7558
vn 0.6549 -0.0013 0.7557
vn 0.2413 -0.9311 0.2735
vn 0.2443 0.9265 -0.2863
vn 0.2441 0.9266 0.2860
vn -0.5842 -0.4985 -0.6405
vn -0.5940 -0.4887 -0.6390
vn -0.5403 -0.6069 -0.5829
vn 0.5844 -0.4985 -0.6403
vn 0.5941 -0.4887 -0.6390
vn 0.5403 -0.6069 -0.5829
vn 0.5844 -0.4985 0.6403
vn 0.5941 -0.4887 0.6389
vn 0.5403 -0.6069 0.5829
vn -0.5020 0.6758 0.5397
vn -0.5425 -0.6076 0.5801
vn -0.5984 -0.4911 0.6330
vn -0.6414 0.3345 0.6905
vn -0.5986 0.4881 0.6351
vn -0.6391 0.3339 -0.6928
vn -0.5944 0.4884 -0.6389
vn -0.6407 0.3643 0.6759
vn -0.6842 -0.0447 0.7279
vn -0.6307 0.3667 -0.6839
vn -0.6804 -0.0447 -0.7314
vn -0.6552 -0.3010 0.6929
vn -0.6880 0.0008 0.7257
vn -0.6392 -0.2964 -0.7096
vn -0.6802 0.0018 -0.7331
vn 0.6392 0.3340 -0.6928
vn 0.5945 0.4884 -0.6388
vn 0.6308 0.3667 -0.6838
vn 0.6805 -0.0447 -0.7314
vn 0.6394 -0.2964 -0.7094
vn 0.6803 0.0018 -0.7330
vn 0.6392 0.3340 0.6928
vn 0.5945 0.4884 0.6388
vn 0.6309 0.3667 0.6838
vn 0.6805 -0.0447 0.7314
vn 0.6394 -0.2964 0.7094
vn 0.6803 0.0018 0.7329
vn 0.0000 0.1314 -0.9913
usemtl Material
s off
f 4/1/1 8/2/1 31/3/1 29/4/1
f 11/5/2 24/6/2 27/7/2 16/8/2
f 13/9/1 26/10/1 23/11/1 12/12/1
f 5/13/3 7/14/3 60/15/3 58/16/3
f 9/17/4 22/18/4 25/19/4 14/20/4
f 22/18/5 9/17/5 10/21/5 21/22/5
f 12/23/6 23/24/6 24/6/6 11/5/6
f 26/10/7 13/9/7 14/20/7 25/19/7
f 28/25/8 15/26/8 16/8/8 27/7/8
f 15/26/9 28/25/9 21/22/9 10/21/9
f 2/27/10 10/28/10 9/17/10
f 8/2/10 12/29/10 11/30/10
f 4/31/10 14/20/10 13/32/10
f 6/33/10 16/34/10 15/35/10
f 2/27/10 6/36/10 15/35/10 10/28/10
f 4/31/10 2/37/10 9/17/10 14/20/10
f 6/33/10 8/38/10 11/30/10 16/34/10
f 8/2/10 4/1/10 13/32/10 12/29/10
f 8/38/2 6/33/2 32/39/2 31/40/2
f 2/37/4 4/31/4 29/41/4 30/42/4
f 6/36/9 2/27/9 30/43/9 32/44/9
f 1/45/11 22/18/11 21/46/11
f 7/14/11 24/47/11 23/48/11
f 3/49/11 26/50/11 25/19/11
f 5/51/11 28/52/11 27/53/11
f 5/51/11 1/54/11 21/46/11 28/52/11
f 1/45/11 3/55/11 25/19/11 22/18/11
f 7/14/11 5/13/11 27/53/11 24/47/11
f 3/49/11 7/56/11 23/48/11 26/50/11
f 144/57/12 173/58/12 85/59/12 79/60/12
f 3/55/13 1/45/13 59/61/13 61/62/13
f 1/54/9 5/51/9 58/63/9 59/64/9
f 7/56/1 3/49/1 61/65/1 60/66/1
f 47/67/10 49/68/10 30/42/10 29/4/10
f 50/69/10 48/70/10 31/40/10 32/44/10
f 48/70/10 47/67/10 29/4/10 31/40/10
f 49/68/10 50/69/10 32/44/10 30/42/10
f 37/71/1 36/72/1 33/73/1
f 35/74/9 38/75/9 34/76/9
f 42/77/9 41/78/9 38/75/9 35/74/9
f 40/79/1 39/80/1 36/72/1 37/71/1
f 44/81/1 43/82/1 39/80/1 40/79/1
f 46/83/9 45/84/9 41/78/9 42/77/9
f 20/85/9 18/86/9 45/84/9 46/83/9
f 49/68/4 47/67/4 54/87/4
f 17/88/1 19/89/1 43/82/1 44/81/1
f 48/70/2 50/69/2 53/90/2
f 19/89/1 17/88/1 47/67/1 48/70/1
f 18/86/9 20/85/9 50/69/9 49/68/9
f 35/74/14 34/76/14 51/91/14 52/92/14
f 43/82/15 19/89/15 48/70/15 53/90/15
f 17/88/16 44/81/16 54/93/16 47/67/16
f 45/84/17 18/86/17 49/68/17 54/87/17
f 42/77/18 35/74/18 52/92/18 55/94/18
f 33/95/19 36/72/19 52/96/19 51/97/19
f 37/71/20 33/73/20 51/98/20 56/99/20
f 34/100/21 38/75/21 56/101/21 51/102/21
f 36/72/22 39/80/22 55/103/22 52/96/22
f 40/79/23 37/71/23 56/99/23 57/104/23
f 38/75/24 41/78/24 57/105/24 56/101/24
f 46/83/25 42/77/25 55/94/25 53/106/25
f 39/80/26 43/82/26 53/90/26 55/103/26
f 44/81/27 40/79/27 57/104/27 54/93/27
f 41/78/28 45/84/28 54/87/28 57/105/28
f 20/85/29 46/83/29 53/106/29 50/69/29
f 68/107/30 67/108/30 128/109/30 133/110/30
f 64/111/31 63/112/31 152/113/31 165/114/31
f 61/115/11 69/116/11 62/117/11 60/66/11
f 70/118/32 73/119/32 90/120/32 88/121/32
f 74/122/33 71/123/33 87/124/33 92/125/33
f 148/126/34 145/127/34 78/128/34 82/129/34
f 76/130/35 75/131/35 91/132/35 93/133/35
f 160/134/36 149/135/36 81/136/36 84/137/36
f 147/138/37 174/139/37 116/140/37 127/141/37
f 175/142/38 162/143/38 110/144/38 117/145/38
f 113/146/39 106/147/39 141/148/39 156/149/39
f 163/150/40 150/151/40 104/152/40 111/153/40
f 100/154/1 99/155/1 93/133/1 91/132/1
f 105/156/41 126/157/41 145/127/41 148/126/41
f 98/158/42 96/159/42 89/160/42 94/161/42
f 103/162/43 101/163/43 92/125/43 87/124/43
f 84/137/44 81/136/44 99/155/44 100/154/44
f 172/164/45 161/165/45 83/166/45 86/167/45
f 72/168/46 77/169/46 94/161/46 89/160/46
f 70/118/11 71/123/11 74/122/11 75/131/11
f 114/170/47 109/171/47 135/172/47 154/173/47
f 117/145/48 110/144/48 161/165/48 172/164/48
f 159/174/49 142/175/49 106/147/49 113/146/49
f 133/110/50 128/109/50 123/176/50 108/177/50
f 108/177/51 123/176/51 131/178/51 134/179/51
f 107/180/52 124/181/52 137/182/52 140/183/52
f 120/184/53 115/185/53 155/186/53 166/187/53
f 127/141/54 116/140/54 173/58/54 144/57/54
f 171/188/55 158/189/55 112/190/55 119/191/55
f 122/192/56 121/193/56 167/194/56 130/195/56
f 129/196/57 164/197/57 121/193/57 122/192/57
f 125/198/58 118/199/58 169/200/58 136/201/58
f 58/202/11 65/203/11 66/204/11 59/64/11
f 153/205/59 132/206/59 109/171/59 114/170/59
f 59/207/11 67/108/11 68/107/11 61/62/11
f 143/208/60 138/209/60 124/181/60 107/180/60
f 130/195/61 167/194/61 170/210/61 139/211/61
f 111/153/62 104/152/62 149/135/62 160/134/62
f 151/212/63 146/213/63 126/157/63 105/156/63
f 154/173/64 135/172/64 142/175/64 159/174/64
f 139/211/65 170/210/65 118/199/65 125/198/65
f 82/129/66 78/128/66 80/214/66 97/215/66 96/159/66 98/158/66
f 86/167/67 83/166/67 101/163/67 103/162/67
f 156/149/68 141/148/68 150/151/68 163/150/68
f 60/216/11 63/112/11 64/111/11 58/16/11
f 165/114/69 152/113/69 115/185/69 120/184/69
f 119/191/70 112/190/70 157/217/70 168/218/70
f 136/201/71 169/200/71 174/139/71 147/138/71
f 95/219/9 102/220/9 88/121/9 90/120/9
f 166/187/72 155/186/72 158/189/72 171/188/72
f 66/204/73 65/203/73 164/197/73 129/196/73
f 134/179/74 131/178/74 138/209/74 143/208/74
f 140/183/75 137/182/75 146/213/75 151/212/75
f 168/218/76 157/217/76 162/143/76 175/142/76
f 80/214/77 79/60/77 85/59/77 102/220/77 95/219/77 97/215/77
f 62/117/11 63/221/11 60/216/11
f 64/111/11 65/222/11 58/202/11
f 66/204/11 67/223/11 59/207/11
f 68/107/11 69/224/11 61/115/11
f 78/128/78 79/225/78 80/214/78
f 95/219/79 96/226/79 97/215/79
f 90/120/80 73/119/80 72/168/80 89/160/80
f 109/171/81 132/206/81 133/110/81 108/177/81
f 115/185/82 152/113/82 153/205/82 114/170/82
f 121/193/83 164/197/83 165/114/83 120/184/83
f 127/141/84 144/57/84 145/127/84 126/157/84
f 76/130/85 93/133/85 94/161/85 77/169/85
f 101/163/86 83/166/86 84/137/86 100/154/86
f 82/129/87 98/158/87 99/155/87 81/136/87
f 95/219/88 90/120/88 89/160/88 96/159/88
f 93/133/89 99/155/89 98/158/89 94/161/89
f 92/125/90 101/163/90 100/154/90 91/132/90
f 88/121/91 102/220/91 103/162/91 87/124/91
f 86/167/92 103/162/92 102/220/92 85/59/92
f 74/122/93 92/125/93 91/132/93 75/131/93
f 70/118/94 88/121/94 87/124/94 71/123/94
f 149/135/95 104/152/95 105/156/95 148/126/95
f 141/148/96 106/147/96 107/180/96 140/183/96
f 135/172/97 109/171/97 108/177/97 134/179/97
f 161/165/98 110/144/98 111/153/98 160/134/98
f 157/217/99 112/190/99 113/146/99 156/149/99
f 155/186/100 115/185/100 114/170/100 154/173/100
f 173/58/101 116/140/101 117/145/101 172/164/101
f 169/200/102 118/199/102 119/191/102 168/218/102
f 167/194/103 121/193/103 120/184/103 166/187/103
f 129/196/104 122/192/104 123/176/104 128/109/104
f 122/192/105 130/195/105 131/178/105 123/176/105
f 125/198/106 136/201/106 137/182/106 124/181/106
f 66/204/107 129/196/107 128/109/107 67/108/107
f 124/181/108 138/209/108 139/211/108 125/198/108
f 68/107/109 133/110/109 132/206/109 69/116/109
f 106/147/110 142/175/110 143/208/110 107/180/110
f 126/157/111 146/213/111 147/138/111 127/141/111
f 130/195/112 139/211/112 138/209/112 131/178/112
f 104/152/113 150/151/113 151/212/113 105/156/113
f 134/179/114 143/208/114 142/175/114 135/172/114
f 78/128/115 145/127/115 144/57/115 79/60/115
f 136/201/116 147/138/116 146/213/116 137/182/116
f 81/136/117 149/135/117 148/126/117 82/129/117
f 140/183/118 151/212/118 150/151/118 141/148/118
f 62/117/119 153/205/119 152/113/119 63/112/119
f 112/190/120 158/189/120 159/174/120 113/146/120
f 110/144/121 162/143/121 163/150/121 111/153/121
f 154/173/122 159/174/122 158/189/122 155/186/122
f 83/166/123 161/165/123 160/134/123 84/137/123
f 156/149/124 163/150/124 162/143/124 157/217/124
f 64/111/125 165/114/125 164/197/125 65/203/125
f 118/199/126 170/210/126 171/188/126 119/191/126
f 116/140/127 174/139/127 175/142/127 117/145/127
f 166/187/128 171/188/128 170/210/128 167/194/128
f 85/59/129 173/58/129 172/164/129 86/167/129
f 168/218/130 175/142/130 174/139/130 169/200/130
f 62/117/131 69/116/131 132/206/131 153/205/131
f 72/168/11 73/119/11 76/130/11 77/169/11
f 73/119/11 70/118/11 75/131/11 76/130/11
